<svg width="448" height="256" viewBox="0 0 448 256" fill="none" xmlns="http://www.w3.org/2000/svg">
<rect x="1" y="40" width="446" height="215" rx="11" fill="#FFFEF2" stroke="#894737" stroke-width="2"/>
<ellipse cx="141.5" cy="72" rx="7.5" ry="10" fill="#894737"/>
<ellipse cx="276.5" cy="70" rx="7.5" ry="10" fill="#894737"/>
<path d="M37 2C56.7882 2 73 19.8096 73 42C73 64.1904 56.7882 82 37 82C17.2118 82 1 64.1904 1 42C1 19.8096 17.2118 2 37 2Z" fill="#FFFEF2" stroke="#894737" stroke-width="2"/>
<path d="M411 1C430.788 1 447 18.8096 447 41C447 63.1904 430.788 81 411 81C391.212 81 375 63.1904 375 41C375 18.8096 391.212 1 411 1Z" fill="#B7897B" stroke="#894737" stroke-width="2"/>
<rect x="2" y="41" width="72" height="87" fill="#FFFEF2"/>
<rect x="366" y="39" width="10" height="2" fill="#894737"/>
<rect x="374" y="37" width="2" height="3" fill="#894737"/>
<path d="M201.75 81.25C202.165 81.4975 202.995 82.33 204.037 82.79C205.39 83.3867 206.58 83.5 207.162 83.3762C208.288 83.1372 208.83 81.755 209.539 81.0012C210.327 80.1627 211.08 82.745 211.996 83.2487C212.946 83.7711 215.48 84 217.205 83.6687C217.58 83.255 217.997 82.835 218.414 82.4612C218.582 82.2525 218.665 82.005 219 81.75" stroke="#894737" stroke-width="3" stroke-linecap="round"/>
<path d="M219.75 80.25C219.75 80.58 219.42 81.08 218.837 81.7038C218.585 81.9975 218.42 82.245 218.211 82.455C218.002 82.665 217.755 82.83 217 83.25" stroke="#894737" stroke-width="3" stroke-linecap="round"/>
<path d="M201 80C201 80.165 201.165 80.58 201.539 81.1213C201.995 81.415 202.58 81.83 203.245 82.3712C203.58 82.5825 203.91 82.665 204.75 83" stroke="#894737" stroke-width="3" stroke-linecap="round"/>
<rect x="75" y="120" width="299" height="103" fill="white" stroke="#894737" stroke-width="2"/>
<path d="M429.25 45.625C429.25 45.79 429.291 46.6175 429.312 48.65C429.345 51.7565 429.084 53.8725 429.021 54.4125C428.988 54.7038 429 55.035 429.082 55.2875C429.233 55.7488 430.366 56.4112 431.782 57.3269C432.585 57.8461 434.317 59.28 436.775 60.9888C437.636 61.5872 437.83 61.46 437.936 61.3556C438.527 60.7714 438.372 59.0475 438.728 58.3769C438.979 57.9044 439.082 57.3775 439.394 56.3169C439.656 55.4268 439.832 54.8775 439.896 54.3769C440.011 53.465 440.041 52.21 440.124 52.0219C440.275 51.6801 440.332 52.8725 440.375 54.8269C440.385 55.2849 440.625 52.5575 440.729 51.3769C440.776 50.8335 440.875 50.2525 440.875 50.3106C440.875 50.6163 440.875 51.4825 440.875 51.805C440.875 52.1115 441 49.3525 440.792 47.6506C440.744 47.2569 440.75 46.6375 440.771 46.4013C440.791 46.165 440.832 46.33 440.854 46.4975C440.933 47.1219 441 48.695 440.876 49.7688C440.799 50.4318 440.542 51.1625 440.479 52.2875C440.439 53.0052 440.292 53.6625 440.229 55.2231C440.191 56.1754 440 56.7888 440.021 57.1231C440.052 57.6399 440.25 55.9625 440.374 55.3969C440.646 54.1608 440.417 58.9975 440.354 60.8469C440.323 61.753 440.167 62.4975 440.021 62.9981C439.88 63.4824 439.875 63.9975 439.751 64.6019C439.624 65.216 439.417 65.8725 439.23 66.3731C439.03 66.9063 438.792 67.455 438.522 67.9981C438.276 68.491 437.795 69.08 437.231 69.6437C436.646 70.2285 436.127 70.54 435.627 70.8738C435.126 71.2075 434.627 71.54 434.127 71.77C433.09 72.2475 431.585 72.8325 431.252 72.9575C431.085 73 430.92 73 430.75 73" stroke="#B7897B" stroke-width="10" stroke-linecap="round"/>
<path d="M433.125 71.625C432.795 72.1225 431.877 72.79 431.273 73.0406C430.679 73.2869 430.252 73.5825 429.731 73.6662C429.085 73.7701 427.225 74.33 425.878 74.6037C424.772 74.8285 423.675 74.75 422.172 74.9575C421.133 75.1009 420.545 75.2075 419.732 75.4575C418.91 75.7105 415.985 75.625 414.376 75.6875C413.938 75.7045 416.485 75.375 417.809 75.4787C418.953 75.5684 420.037 75.25 420.831 75.105C420.999 75.0425 421.122 74.96 421.248 74.8969C421.374 74.8337 421.497 74.7925 421.375 75" stroke="#B7897B" stroke-width="10" stroke-linecap="round"/>
<path d="M424.976 74.1457C424.897 74.3944 424.578 74.8931 424.06 75.4973C423.653 75.9715 423.182 76.2278 422.702 76.3946C422.187 76.5739 421.546 76.6452 420.927 76.7489C419.919 76.9178 418.481 76.8951 417.118 76.9988C414.446 77.2023 413.961 76.8951 413.343 76.7914C412.529 76.6549 411.806 76.4377 411.306 76.1465C410.728 75.8096 410.249 75.4804 409.769 75.3748C409.138 75.2358 408.333 75.188 407.992 75.0418C407.531 74.8447 409.126 75.228 409.666 75.3117C410.286 75.4079 410.723 75.7279 411.203 75.8741C411.32 75.9098 411.442 75.8953 411.463 75.9572C411.485 76.0191 411.406 76.1428 411.306 76.2271C410.916 76.5559 408.946 76.5202 407.733 76.3959C407.23 76.3443 406.776 76.0628 406.296 75.8753C405.653 75.6237 404.98 75.188 404.342 74.9799C402.991 74.5389 402.345 74.3132 401.866 74.1464C401.373 73.9749 400.908 73.6058 400.13 73.1684C399.586 72.8622 399.112 72.6886 398.513 72.3768C397.878 72.0458 397.435 71.7313 396.956 71.605C396.833 71.5727 396.717 71.4813 396.715 71.4595C396.682 71.0609 397.55 72.0187 397.851 72.5398C398.244 73.222 398.868 73.4359 399.347 73.6452C399.874 73.8753 400.503 74.3932 401.024 74.645C401.495 74.873 402.376 75.268 403.179 75.5404C404.295 75.9195 406.012 75.8528 406.632 76.1234C407.191 76.3677 407.928 76.5602 408.647 76.7695C409.348 76.9736 410.481 77.0601 411.361 77.1657C412.324 77.2814 414.617 77.395 416.052 77.2913C416.832 77.2349 417.547 77.0626 418.148 76.9995C418.27 76.9867 418.387 76.9376 418.073 76.9164C417.01 76.8445 415.049 76.6064 413.173 76.169C411.898 75.8717 410.85 75.5229 408.719 74.7325C406.336 73.8487 404.941 73.3134 403.19 73.2091C400.814 73.0676 399.95 72.8135 399.351 72.6261C398.655 72.4081 397.402 71.9412 396.458 71.6263C395.698 71.3728 395.16 71.0639 394.7 70.6484C394.156 70.1569 393.484 69.4418 392.885 68.8782C391.975 68.0216 390.811 66.5699 390.289 65.8994C389.873 65.3645 389.69 64.5254 389.311 64.0249C388.927 63.5164 388.495 62.8183 388.173 62.1922C387.919 61.6973 387.654 61.2761 387.395 60.7756C387.151 60.3052 386.897 59.694 386.597 59.0266C386.275 58.3127 385.899 57.9019 385.678 57.4013C385.428 56.8331 384.981 56.2772 384.72 55.7767C384.443 55.2446 384.301 54.6526 383.942 54.0277C383.591 53.4162 383.384 52.778 383.064 52.2569C382.714 51.6868 382.385 51.2783 382.205 50.6535C382.007 49.9635 381.865 49.4038 381.766 48.9032C381.667 48.4027 381.348 47.4917 381.048 46.6338C380.8 45.9252 380.788 45.4047 380.589 44.7804C380.512 44.5404 380.548 44.1599 380.568 44.0306C380.614 43.7292 380.905 45.7246 381.226 46.9599C381.64 48.5523 381.386 50.9234 381.585 52.4393C381.694 53.2706 381.746 53.9377 381.964 54.6476C382.153 55.2599 382.342 55.9373 382.623 56.5228C382.916 57.134 383.42 57.6469 383.86 58.2512C384.356 58.9322 384.936 60.1864 385.357 61.1036C385.711 61.8761 386.215 62.3959 386.673 63.0207C387.164 63.6887 387.652 64.103 388.567 64.9359C389.14 65.4572 389.528 65.8551 390.024 66.31C392.263 68.3643 393.836 69.6417 394.676 70.166C395.438 70.6415 396.942 71.5563 398.187 72.3311C398.957 72.8097 400.299 73.3509 402.781 74.1601C404.418 74.6938 406.884 75.258 408.205 75.5767C409.885 75.9818 410.443 76.2278 411.082 76.3321C411.745 76.4403 412.239 76.7277 413.452 77.0807C415.18 77.5835 416.789 77.6449 417.546 77.6656C417.869 77.6744 418.066 77.7274 419.413 77.7693C420.76 77.8112 423.249 77.8524 424.63 77.853C426.573 77.8539 427.208 77.6874 427.848 77.6243C428.648 77.5454 429.603 77.4375 430.243 77.25C430.907 77.0552 431.519 76.8126 432.099 76.7289C432.944 76.6068 433.555 76.2303 434.075 75.9172C434.508 75.6567 435.033 75.6054 435.612 75.3755C436.138 75.1663 436.59 74.8556 437.128 74.5013C437.94 73.9678 438.506 73.4809 439.065 73.1266C439.585 72.7968 439.943 72.0662 440.164 71.4613C440.443 70.6991 440.462 70.1491 440.643 69.4424C440.858 68.6036 440.703 67.8984 440.763 66.9067C440.912 64.4352 440.823 62.6495 440.883 61.596C441.034 58.9387 440.982 56.9433 441.102 56.1979C441.187 55.6644 441.142 54.7926 441.142 54.5939C441.142 53.6631 441.262 56.2697 441.362 57.0633C441.418 57.5161 441.421 57.8981 441.481 58.931C441.632 61.5264 441.462 63.4381 441.402 63.9768C441.218 65.6364 441.262 67.7122 441.362 69.7423C441.466 71.8661 441.263 73.3946 441.044 73.644C440.577 74.1758 439.511 74.8081 438.849 75.2486C438.295 75.6171 437.04 75.9753 436.076 76.2696C435.256 76.52 434.52 76.6027 432.369 76.6658C431.552 76.6898 431.086 76.9776 430.586 77.1444C430.023 77.3328 429.529 77.3525 428.95 77.4156C428.21 77.4963 427.333 77.5612 427.172 77.6443C426.688 77.895 428.327 77.9774 429.323 77.9992C430.057 78.0154 430.602 77.7699 431.22 77.6456C432.085 77.4717 432.877 77.27 433.357 77.0626C433.806 76.8683 434.393 76.8126 434.933 76.5627C435.067 76.501 435.232 76.5202 435.076 76.5821C433.831 77.0766 432.214 77.5575 431.185 77.7905C430.888 77.8579 429.539 77.8949 427.545 77.833C425.439 77.7677 424.26 77.4375 422.41 76.2346C420.707 74.6069 420.148 73.7321 419.829 73.006C419.669 72.5686 419.51 71.9912 419.348 71.3963" stroke="#B7897B" stroke-width="10" stroke-linecap="round"/>
<path d="M401.875 48.125H402" stroke="#B7897B" stroke-width="5" stroke-linecap="round"/>
<path d="M380.5 41.5V41.375" stroke="#B7897B" stroke-linecap="round"/>
<path d="M375.375 42.875C375.375 43.62 375.457 45.0375 375.521 46.1419C375.565 46.9195 375.707 47.7475 375.771 49.4931C375.789 50.0009 375.875 50.3313 375.875 50.2725C375.875 48.0447 375.625 46.5475 375.625 45.755C375.625 45.467 375.915 47.6125 376.228 49.2244C376.425 50.2402 376.705 51.49 377.02 52.4975C377.235 53.1852 377.458 53.7475 377.728 54.3931C377.886 54.7694 377.916 55.165 377.999 55.3119C378.083 55.0875 378.084 54.545 378.021 53.9831C378 53.7512 378 53.6275 378 53.5" stroke="#B7897B" stroke-linecap="round"/>
<path d="M375 42C375 42.7038 375.083 43.8725 375.27 44.5794C375.716 46.259 375.75 47.2875 375.874 47.9769C375.977 48.5447 376.082 49.205 376.249 49.8725C376.429 50.5891 376.872 51.495 377.145 52.1438C377.402 52.755 377.665 53.2475 377.854 53.5831C377.875 53.5438 377.875 53.3375 377.834 53.1075C377.793 52.8775 377.71 52.63 377.625 52.375" stroke="#B7897B" stroke-linecap="round"/>
<path d="M374.75 43.375C374.75 43.7488 374.915 44.33 375.208 45.62C375.431 46.604 375.5 47.6225 375.604 48.1231C375.706 48.6171 375.832 49.2875 375.916 50.205C375.981 50.916 376.415 51.5375 376.541 52.1231C376.659 52.6701 377.04 53.1225 377.291 53.6438C377.599 54.2855 377.791 54.6238 377.854 54.7494C377.875 54.7513 377.875 54.6275 377.854 54.3781C377.834 54.1288 377.793 53.7575 377.625 53.125" stroke="#B7897B" stroke-linecap="round"/>
<path d="M375 42.25C375 42.9125 375.165 44.4925 375.271 45.7669C375.321 46.3806 375.458 46.955 375.521 48.2244C375.556 48.9293 375.833 49.58 375.999 50.2682C376.184 51.0282 376.29 51.7875 376.541 52.725C376.624 53.0374 376.748 53.45 376.77 53.5182C377 54.2152 376.168 52.17 375.607 50.8194C374.72 48.6821 374.918 47.7525 374.854 45.6957C374.8 43.9253 374.791 41.6263 374.874 41.3563C374.919 41.2109 374.958 41.045 374.979 41.3725C375.127 43.6613 375.25 44.91 375.374 45.8307C375.449 46.3831 375.665 46.8725 375.791 47.4557C376.009 48.4637 376.125 49.1225 376.436 50.1625C376.668 50.9358 376.833 51.6225 377.331 53.2644C377.84 54.9384 378.958 56.9988 379.041 57.1244C379.322 57.5452 378.253 56.045 376.776 53.4269C376.296 52.5745 376.334 52.1263 376.292 52.0213C376.09 51.5155 376.873 53.2875 377.353 54.08C377.951 55.068 378.083 55.9125 378.457 56.6019C378.777 57.1917 379.083 57.955 379.478 58.4982C379.887 59.0614 380.415 59.6225 380.769 60.185C380.884 60.3666 380.998 60.62 380.999 60.7063C381.008 61.0963 380.335 59.92 379.483 57.9044C378.812 56.3167 378.21 55.8775 377.959 55.2525C377.695 54.5936 377.419 54.0038 377.106 53.5444C376.619 52.8275 377.54 55.83 377.666 56.3732C377.852 57.1706 378.415 58.1225 378.645 58.6232C378.936 59.2576 379.373 60.08 379.769 60.8307C380.165 61.5786 381.038 62.4125 381.851 63.5569C382.566 64.564 382.958 65.3738 383.021 65.4788C383.374 66.0658 382.293 64.2525 381.773 63.4407C381.37 62.8104 380.508 61.4275 379.876 60.3982C379.54 59.8503 379.085 59.2125 378.689 58.4825C378.026 57.2587 378.084 56.71 378.042 56.5632C377.792 55.6866 378.958 58.6625 379.104 59.2482C379.228 59.7442 379.54 60.495 379.957 61.3307C380.479 62.3775 381.663 64.2025 382.455 65.1419C383.559 66.4503 383.998 67.08 384.581 67.6232C384.712 67.7445 384.79 67.8725 384.791 67.8538C384.827 67.3166 384.045 66.795 383.378 66.0444C382.419 64.9668 381.253 63.3775 380.628 62.5244C379.981 61.642 379.585 60.63 379.272 59.8775C379.138 59.5558 379.001 59.2513 378.834 59.1257C378.489 58.8657 379.29 60.37 380.578 62.6788C381.444 64.2314 382.828 66.45 383.581 67.3725C384.094 67.9997 385.365 69.365 386.372 70.2682C387.592 71.3623 388.248 71.8725 388.769 72.1863C389.53 72.6444 390.123 73.165 390.602 73.6644C391.595 74.6986 392.54 75.3738 392.708 75.4994C393.247 75.9042 391.215 73.965 389.236 72.5463C388.27 71.8531 387.42 71.1275 386.794 70.5232C386.306 70.0529 386.085 69.46 385.856 69.2719C385.377 68.8796 387.698 71.5725 388.727 72.5813C389.223 73.0676 389.748 73.6225 390.684 74.31C391.435 74.8616 392.288 75.4975 393.081 75.8738C393.689 76.1622 394.248 76.54 394.748 76.77C395.266 77.0077 396.82 77.8675 397.873 78.395C398.131 78.5242 398.374 78.6663 398.458 78.7288C398.928 79.077 397.295 78.4175 396.193 77.9194C394.301 77.065 392.92 76.0025 392.481 75.5225C392.281 75.3047 391.96 75.085 391.916 74.9382C391.558 73.7346 394.943 76.6575 396.579 77.4982C397.415 77.9271 397.873 78.3325 398.642 78.8932C399.962 79.855 401.038 79.8325 402.059 79.8957C402.803 79.9417 404.198 80.3725 405.227 80.7075C405.852 80.911 407.448 81.1238 409.877 81.3113C412.834 81.5395 414.706 81.4163 414.648 81.4788C413.957 82.213 411.184 81.2938 408.498 80.94C406.86 80.7244 406.13 80.46 405.336 80.1263C404.449 79.753 403.588 79.585 402.65 79.3344C401.922 79.1397 401.335 78.9588 401.271 78.8963C400.539 78.1861 403.203 79 403.998 79.2075C404.609 79.3671 405.288 79.4575 406.266 79.7488C407.761 80.1937 408.373 80.25 410.346 80.4575C410.79 80.5041 410.955 80.5 410.854 80.5C409.626 80.5 407.72 80.0025 406.731 79.8338C405.972 79.7042 405.005 79.5 403.339 79.2719C402.529 79.161 401.63 79 400.942 79.0207C400.748 79.0265 400.873 79.0825 401.019 79.1244C401.699 79.3191 402.62 79.6225 403.621 79.9782C404.101 80.1487 404.623 80.2075 405.534 80.4357C407.252 80.8659 409.2 81 409.955 80.8763C411.063 80.6946 407.091 80.1675 405.698 80.0013C403.982 79.7967 403.253 79.335 401.839 78.4619C401.205 78.0698 400.751 77.9175 400.646 77.875C399.843 77.55 402.783 79.1225 404.121 79.395C405.816 79.7403 408.613 80.6225 409.666 80.6882C410.19 80.7208 407.76 80.21 405.992 79.9188C403.665 79.5355 402.09 79.1675 401.377 79.0213C400.597 78.8613 399.626 78.7088 399.501 78.7082C398.763 78.7045 401.163 79.6238 402.757 79.9763C405.852 80.6607 407.999 80.9163 408.351 80.9788C409.482 81.1792 410.165 81.125 410.353 81.0838C410.509 81.0496 408.269 80.7925 405.333 80.6263C403.401 80.5169 402.338 79.92 401.813 79.4382C401.095 78.7785 403.828 80.54 405.697 80.9363C408.325 81.4933 410.249 80.9588 410.601 80.8963C410.827 80.8562 411.16 80.875 409.845 80.6069C408.53 80.3388 405.56 79.8025 403.886 79.4644C401.909 79.0652 401.501 78.875 401.376 78.8544C400.639 78.7334 403.62 79.3325 404.476 79.6032C405.219 79.8378 406.45 80.3725 409.115 80.915C409.705 81 410.035 81 410.143 81C410.251 81 410.127 81 410 81" stroke="#B7897B" stroke-linecap="round"/>
<path d="M375.453 41.7031C375.484 41.7651 375.588 42.1172 375.685 42.3848C375.697 42.4193 375.718 42.4268 375.729 42.4244C375.818 42.4041 375.802 42.1828 375.851 41.9177C375.882 41.7531 375.844 41.6256 375.836 41.5293C375.833 41.4941 375.813 41.4897 375.797 41.487C375.735 41.4765 375.579 41.5156 375.466 41.5311C375.347 41.5476 375.203 41.604 375.076 41.6068C374.968 41.6091 374.844 41.5834 374.711 41.5755C374.651 41.5719 374.61 41.5573 374.581 41.5572C374.462 41.5569 374.537 41.859 374.516 41.9397C374.503 41.9885 374.495 42.0311 374.487 42.2272C374.48 42.4078 374.484 42.7534 374.487 42.9443C374.49 43.161 374.505 43.2029 374.513 43.363C374.533 43.7804 374.51 44.0779 374.503 44.1349C374.476 44.3262 374.516 44.4212 374.542 44.5568C374.561 44.6599 374.562 44.765 374.575 44.8745C374.586 44.9619 374.583 45.0465 374.591 45.1707C374.607 45.4182 374.599 45.5987 374.607 45.6712C374.632 45.91 374.625 46.18 374.651 46.4238C374.668 46.5877 374.672 46.6922 374.685 46.7654C374.7 46.8533 374.719 47.0406 374.732 47.1972C374.745 47.3619 374.75 47.5615 374.784 47.7615C374.852 48.1648 374.864 48.3534 374.88 48.4917C374.898 48.646 375.01 48.9 375.06 49.0618C375.138 49.3167 375.182 49.385 375.302 49.5722C375.375 49.688 375.453 49.7703 375.629 49.9884C375.708 50.0855 375.857 50.2006 375.982 50.3211C376.357 50.6793 376.385 50.755 376.401 50.7785C376.406 50.7814 376.406 50.7659 376.399 50.7322C376.391 50.6984 376.375 50.6468 376.359 50.5937" stroke="#B7897B" stroke-linecap="round"/>
<path d="M374.594 41.5938C374.651 41.6506 374.776 41.7962 374.82 41.9059C374.827 41.9222 374.782 41.9219 374.756 41.9141C374.662 41.8867 374.61 41.8231 374.586 41.7555C374.574 41.7225 374.531 41.7084 374.505 41.6825C374.495 41.6669 374.49 41.6463 374.487 41.6176C374.484 41.5889 374.484 41.5528 374.484 41.5156" stroke="#B7897B" stroke-linecap="round"/>
<path d="M445.062 74.9062C444.97 75.2781 444.761 75.9887 444.569 76.3162C444.311 76.7563 444.022 76.9469 443.844 77.0673C443.662 77.1908 443.501 77.3431 443.08 77.6184C442.77 77.8213 442.511 78.0822 442.309 78.2644C442.178 78.3818 441.98 78.4575 441.772 78.6031C441.611 78.7159 441.304 78.8119 440.832 78.9623C439.999 79.2273 439.886 79.3956 439.647 79.5047C439.556 79.5464 439.419 79.5825 439.371 79.6089C439.322 79.6353 439.364 79.6456 439.436 79.6406C439.614 79.6284 439.884 79.5009 440.278 79.3345C440.769 79.1273 441.156 79.1356 441.311 79.0734C441.706 78.9158 441.894 78.7712 442.326 78.5219C442.632 78.3455 442.895 78.0944 443.093 77.99C443.303 77.879 443.426 77.6781 443.593 77.5836C443.755 77.492 443.967 77.2206 444.151 77.0836C444.284 76.9844 444.426 76.8338 444.536 76.7295C444.644 76.6268 444.812 76.5319 444.927 76.4327C445.087 76.2941 445.281 75.97 445.375 75.813C445.449 75.6886 445.469 75.5631 445.546 75.3759C445.614 75.2128 445.552 75.0628 445.531 75.0005C445.521 74.9691 445.511 74.9381 445.485 74.9634C445.29 75.1536 445.22 75.5394 445.089 75.8066C444.999 75.9898 444.772 76.2688 444.351 76.7273C444.238 76.8501 444.137 76.9869 443.899 77.2261C443.66 77.4653 443.289 77.8056 443.077 78.0067C442.817 78.2529 442.719 78.3641 442.125 78.7619C441.598 79.1151 440.593 79.7475 440.026 80.1027C439.362 80.5188 439.167 80.6244 438.986 80.7491C438.782 80.8885 438.605 80.9581 438.49 81.01C438.351 81.0733 437.91 81.2178 437.327 81.3688C436.99 81.456 436.876 81.5519 436.642 81.6455C436.29 81.7863 435.774 81.8744 435.138 81.9528C434.761 81.9993 434.521 82.0831 434.278 82.1402C433.308 82.3678 433.064 82.3225 432.767 82.3541C432.231 82.4111 431.917 82.4269 431.709 82.4427C431.448 82.4625 431.22 82.4894 430.492 82.5052C430.042 82.5149 429.74 82.5209 429.182 82.5002C428.697 82.4821 427.799 82.4794 427.157 82.4483C426.514 82.4172 426.153 82.3656 425.781 82.3133C425.039 82.2087 424.543 82.1563 424.345 82.1511C424.261 82.1489 424.209 82.1356 423.775 82.1045C423.341 82.0734 422.527 82.0219 422.081 81.9902C421.636 81.9584 421.584 81.9481 421.388 81.9273C421.191 81.9066 420.851 81.8756 420.005 81.7823C419.159 81.6891 417.819 81.5344 417.092 81.4547C416.294 81.3672 416.146 81.3647 415.986 81.3491C415.897 81.3405 415.794 81.3437 415.24 81.3128C414.687 81.2819 413.687 81.22 413.037 81.1675C412.118 81.0932 411.73 81.0313 411.527 81.0261C411.375 81.0222 411.271 81 410.827 80.9381C410.423 80.8819 409.661 80.7525 409.232 80.6887C408.803 80.625 408.731 80.625 408.374 80.5734C408.017 80.5219 407.377 80.4187 407.007 80.3656C406.636 80.3125 406.554 80.3125 406.48 80.3331C406.407 80.3538 406.345 80.395 406.308 80.4369C406.271 80.4787 406.261 80.52 406.302 80.6444C406.343 80.7687 406.436 80.975 406.531 81.1875" stroke="#B7897B" stroke-linecap="round"/>
<path d="M400.531 79.5625C400.635 79.6038 401.028 79.8938 401.757 80.228C402.005 80.3419 402.378 80.4044 402.605 80.4677C402.833 80.5309 402.915 80.5619 403.344 80.6397C403.773 80.7175 404.547 80.8413 404.992 80.9205C405.437 80.9997 405.529 81.0306 405.84 81.0981C406.151 81.1656 406.677 81.2688 406.974 81.3322C407.27 81.3956 407.322 81.4162 407.529 81.463C407.736 81.5097 408.097 81.5819 409.732 81.7789C411.367 81.9759 414.264 82.2956 416.144 82.4603C418.023 82.625 418.797 82.625 420.165 82.6662C421.533 82.7075 423.471 82.79 424.511 82.8273C425.551 82.8647 425.634 82.8544 425.934 82.8439C426.234 82.8334 426.75 82.8231 427.052 82.8075C427.427 82.7881 427.778 82.6881 428.272 82.5892C428.487 82.5463 428.632 82.5419 429.15 82.4541C429.668 82.3662 430.555 82.2013 431.404 81.9822C432.252 81.7631 433.036 81.495 433.528 81.3002C434.019 81.1053 434.194 80.9919 434.424 80.8664C434.653 80.7409 434.932 80.6069 435.075 80.5739C435.219 80.5409 435.219 80.6131 435.147 80.7792C434.815 81.5426 434.563 81.5831 434.36 81.7027C434.209 81.7917 433.754 82.04 432.961 82.265C432.616 82.3629 432.242 82.3541 431.862 82.3903C431.284 82.4455 431.157 82.5103 430.816 82.562C430.507 82.6089 429.918 82.6756 429.43 82.7128C428.941 82.75 428.57 82.75 428.116 82.7191C427.662 82.6881 427.136 82.6263 426.684 82.5325C425.861 82.3615 425.438 82.1772 425.319 82.1512C425.209 82.115 425.125 82.0834 425.058 82.073C425.021 82.0728 424.98 82.0831 424.938 82.0938" stroke="#B7897B" stroke-linecap="round"/>
<path d="M426.25 82.8438C426.271 82.8438 426.291 82.8437 427.813 82.6891C429.334 82.5344 432.356 82.225 433.964 82.0398C435.572 81.8547 435.675 81.8031 435.775 81.6889C435.874 81.5747 435.967 81.3994 436 81.1562" stroke="#B7897B" stroke-linecap="round"/>
<path d="M427.094 82.75C427.217 82.75 427.779 82.7088 428.381 82.6514C429.185 82.5748 429.687 82.6459 429.59 82.6303C429.178 82.5643 428.751 82.6559 428.528 82.708C428.165 82.7924 427.659 82.8119 427.391 82.8541C427.3 82.8684 427.996 82.9063 428.698 82.9011C428.968 82.8991 429.061 82.8856 429.31 82.8648C429.558 82.8441 429.961 82.8131 430.575 82.7198C431.19 82.6266 432.004 82.4719 432.532 82.3612C433.28 82.2045 433.603 82.0734 433.78 81.9798C433.999 81.864 434.269 81.8025 434.494 81.7191C434.586 81.685 434.656 81.6459 434.687 81.6406C434.85 81.6131 434.149 82.0606 433.411 82.3011C433 82.435 432.224 82.5181 431.573 82.5923C430.922 82.6666 430.406 82.6769 429.341 82.6719C428.277 82.6669 426.678 82.6462 425.953 82.6408C425.227 82.6353 425.423 82.6456 425.586 82.6664C425.875 82.7033 426.052 82.75 426.166 82.7603C426.304 82.7728 426.674 82.8434 427.163 82.8903C427.425 82.9154 427.552 82.8959 427.769 82.8803C428.581 82.822 429.018 82.8437 429.301 82.8178C429.344 82.8139 429.374 82.8125 429.375 82.8125C429.479 82.8125 429.146 82.8644 427.929 82.7203C426.749 82.5807 424.443 82.205 423.165 81.9934C421.887 81.7819 421.712 81.72 421.57 81.6623C421.322 81.5614 421.116 81.4072 420.918 81.215C420.725 81.0275 420.584 80.7928 420.433 80.5797C420.293 80.3812 420.074 80.1269 419.892 79.7941C419.803 79.5437 419.771 79.3138 419.76 79.0798C419.76 78.9697 419.771 78.8769 419.781 78.7812" stroke="#B7897B" stroke-linecap="round"/>
<path d="M375.312 48.9375C375.312 49.02 375.581 49.8256 376.348 51.8275C376.826 53.0746 377.569 54.7575 379.044 57.1962C380.519 59.635 382.726 62.77 385.049 65.2616C387.372 67.7531 389.744 69.5062 391.12 70.4919C392.497 71.4775 392.806 71.6425 393.296 71.8203C393.785 71.9981 394.445 72.1837 394.692 72.1659C394.939 72.1481 394.754 71.9213 394.514 71.6703C394.274 71.4194 393.985 71.1513 393.688 70.875" stroke="#B7897B" stroke-linecap="round"/>
<path d="M375.438 49.9375C375.438 49.9581 375.438 49.9787 375.675 50.5669C375.912 51.155 376.386 52.31 377.909 55.1841C379.433 58.0581 381.99 62.6162 383.607 65.315C385.223 68.0137 385.821 68.715 386.8 69.6125C387.778 70.51 389.119 71.5825 390.459 72.4547C391.799 73.3269 393.099 73.9663 394.521 74.4813C395.943 74.9963 397.449 75.3675 398.358 75.5588C399.268 75.75 399.536 75.75 399.602 75.6675C399.668 75.585 399.524 75.42 399.367 75.2731C399.21 75.1262 399.045 75.0025 398.812 74.875" stroke="#B7897B" stroke-linecap="round"/>
<path d="M375.125 49.0625C375.208 49.4556 375.54 50.5363 375.646 51.0197C375.738 51.4446 375.977 52.1 376.135 52.6234C376.28 53.106 376.457 53.6025 376.727 54.5981C377.078 55.892 377.396 56.7906 377.447 56.9984C377.565 57.4684 378.1 58.6162 378.437 59.3316C378.818 60.1432 379.145 60.685 379.561 61.5281C379.904 62.2232 380.352 63.2475 380.551 63.7375C380.894 64.5815 381.478 65.2675 381.749 65.6656C381.924 65.922 382.186 66.2475 382.447 66.6238C382.745 67.0546 383.495 67.8075 384.009 68.415C384.329 68.7931 384.582 68.9988 384.822 69.2075C385.128 69.4742 385.724 70.12 386.187 70.6031C386.401 70.8273 386.747 71.185 387.061 71.5506C387.575 72.1496 388.102 72.415 388.384 72.6347C388.715 72.8923 389.226 73.2888 390.153 73.8522C390.682 74.1742 390.978 74.4775 391.342 74.7488C391.731 75.0381 392.124 75.2494 392.775 75.4875C394.211 76.0121 395.27 76.2913 395.436 76.3641C395.801 76.524 396.516 76.7694 397.163 77.0088C397.355 77.1038 397.272 77.145 397.189 77.1456C397.105 77.1462 397.023 77.105 396.938 77.0625" stroke="#B7897B" stroke-linecap="round"/>
<path d="M374.75 47.625C374.771 47.6663 374.791 47.7075 374.874 48.0072C374.957 48.3069 375.101 48.8637 375.877 50.8728C376.653 52.8819 378.055 56.3262 379.396 59.1422C380.737 61.9581 381.975 64.0412 382.943 65.5269C383.91 67.0125 384.57 67.8375 385.209 68.5409C385.848 69.2444 386.446 69.8013 387.652 70.6863C388.857 71.5713 390.651 72.7675 392.473 73.755C394.294 74.7425 396.089 75.485 397.993 76.115C399.897 76.745 401.856 77.24 402.979 77.5362C404.748 78.0412 405.538 78.29 405.927 78.4372C405.938 78.4581 405.876 78.4787 405.688 78.5" stroke="#B7897B" stroke-linecap="round"/>
<path d="M384.625 68.0625C384.852 68.5381 385.643 69.6419 386.462 70.4934C387.497 71.5684 388.312 72.0825 388.787 72.4963C389.187 72.8441 389.964 73.405 390.707 73.8984C391.451 74.3919 392.153 74.7837 392.741 75.0784C393.766 75.5924 394.539 75.8325 395.059 75.9988C395.468 76.1296 396.471 76.5181 397.834 76.9656C398.804 77.284 399.35 77.9125 399.687 78.5294C399.833 78.8744 399.999 79.0825 400.301 79.3219C400.415 79.395 400.58 79.4775 400.75 79.6875" stroke="#B7897B" stroke-linecap="round"/>
<path d="M400.344 79.7812C400.354 79.7812 400.364 79.7812 400.511 79.8405C400.659 79.8998 400.942 80.0184 401.346 80.1337C401.75 80.2489 402.266 80.3572 402.812 80.4688" stroke="#B7897B" stroke-linecap="round"/>
<path d="M398.062 78.7344C398.073 78.7344 398.083 78.7344 398.161 78.7859C398.238 78.8375 398.382 78.9406 398.895 79.1639C399.408 79.3872 400.284 79.7275 400.867 79.9286C401.45 80.1297 401.713 80.1812 401.898 80.2104C402.082 80.2395 402.18 80.2447 402.223 80.2448C402.266 80.2448 402.25 80.2397 402.234 80.2344" stroke="#B7897B" stroke-linecap="round"/>
<path d="M397.188 78.4688C397.198 78.4688 397.208 78.4688 397.422 78.5409C397.636 78.6131 398.054 78.7575 399.28 79.0948C400.506 79.4322 402.527 79.9581 403.55 80.2162C404.573 80.4742 404.537 80.4484 404.484 80.4062" stroke="#B7897B" stroke-linecap="round"/>
<path d="M389.188 73.0312C389.27 73.155 389.472 73.3425 389.792 73.5867C389.951 73.7082 390.106 73.8206 390.219 73.8971C390.333 73.9736 390.4 74.0097 390.648 74.1365C390.897 74.2634 391.325 74.48 391.555 74.6018C391.786 74.7237 391.807 74.7443 391.918 74.8297C392.029 74.9151 392.23 75.0647 392.365 75.1572C392.499 75.2497 392.561 75.2806 392.748 75.3997C392.934 75.5187 393.244 75.725 393.411 75.8415C393.578 75.9581 393.593 75.9787 393.601 75.9971C393.609 76.0154 393.609 76.0309 393.591 76.044C393.544 76.0787 393.397 76.0626 393.148 76.0031C392.806 75.9214 392.558 75.7815 392.446 75.7321C392.34 75.6851 392.266 75.6459 391.947 75.4461C391.77 75.3355 391.678 75.2815 391.584 75.1982C391.502 75.1253 391.375 75.0575 391.284 74.9898C391.201 74.9281 390.95 74.7462 390.797 74.6226C390.721 74.5612 390.657 74.5003 390.568 74.4248C390.426 74.3038 390.349 74.2243 390.282 74.1668C390.208 74.1049 390.141 74.0472 390.008 73.9172C389.907 73.8174 389.818 73.7606 389.761 73.7007C389.69 73.6275 389.538 73.4597 389.407 73.3543C389.32 73.285 389.24 73.1984 389.126 73.0916C389.084 73.0527 389.027 72.9959 389.034 73.0131C389.137 73.2706 389.281 73.2809 389.331 73.3409C389.381 73.4016 389.561 73.499 389.767 73.6603C389.851 73.7261 389.885 73.77 389.777 73.7293C389.406 73.5896 389.146 73.422 389.125 73.3908C389.115 73.3751 389.104 73.3597 389.584 73.6275C390.063 73.8954 391.033 74.4472 391.545 74.7417C392.057 75.0362 392.083 75.0568 392.215 75.1345C392.347 75.2122 392.584 75.3462 392.727 75.4307C392.914 75.5414 393.067 75.6554 393.208 75.7726C393.245 75.8036 393.173 75.8125 393.121 75.8073C392.945 75.7901 392.865 75.7809 392.717 75.7943C392.646 75.8008 392.544 75.7506 392.509 75.7527C392.401 75.7592 392.681 75.9937 392.82 76.1272C392.885 76.19 393.03 76.2806 393.13 76.3357C393.18 76.3636 393.224 76.3957 393.265 76.4087C393.287 76.4154 393.307 76.4268 393.258 76.3857C392.953 76.1282 392.855 76.0939 392.697 76.006C392.573 75.9371 392.369 75.8047 392.18 75.6764C391.991 75.5481 391.826 75.4243 391.731 75.3477C391.61 75.2508 391.516 75.1414 391.294 74.9417C391.152 74.8148 390.937 74.6543 390.817 74.5616C390.678 74.453 390.641 74.4168 390.535 74.3237C390.293 74.111 390.089 73.9793 390.045 73.9455C389.889 73.8262 389.641 73.7345 389.641 73.7343C389.513 73.6067 389.895 73.9731 389.987 74.0778C390.061 74.1625 390.156 74.2443 390.234 74.3072C390.305 74.3636 389.981 74.0428 389.813 73.8522C389.646 73.6623 389.501 73.5478 389.404 73.4637C389.285 73.3609 389.115 73.24 389.034 73.1721C388.954 73.1046 388.875 73.0262 388.79 72.9535C388.752 72.9212 388.689 72.8759 388.647 72.8468C388.604 72.8178 388.584 72.8075 388.612 72.846C388.794 73.0966 388.901 73.1506 389.093 73.2938C389.127 73.3191 388.964 73.2087 388.875 73.1227C388.768 73.0189 388.553 72.7984 388.402 72.6489C388.361 72.6089 388.298 72.5481 388.65 72.7431C389.003 72.9381 389.771 73.3918 390.254 73.6565C390.738 73.9212 390.913 73.9831 391.04 74.0227C391.236 74.0843 391.349 74.0937 391.424 74.086C391.504 74.0628 391.562 74.0262 391.586 73.9872C391.594 73.9689 391.594 73.9534 391.594 73.9375" stroke="#B7897B" stroke-linecap="round"/>
<path d="M390.406 74.2812C390.468 74.3123 390.572 74.3747 390.641 74.4555C390.701 74.5273 390.474 74.4325 390.404 74.3986C390.384 74.3889 390.365 74.365 390.375 74.3621C390.385 74.3592 390.426 74.3747 390.587 74.4652C390.747 74.5556 391.026 74.7206 391.362 74.8907C391.699 75.0608 392.086 75.2309 392.298 75.3315C392.51 75.432 392.536 75.4578 392.575 75.4891C392.614 75.5205 392.666 75.5566 392.75 75.625" stroke="#B7897B" stroke-linecap="round"/>
<path d="M393.422 76.5C393.489 76.5155 393.614 76.5778 393.726 76.6223C393.799 76.6511 393.931 76.7391 394.047 76.7967C394.088 76.8175 394.171 76.8539 394.314 76.9059C394.489 76.9696 394.723 77.0359 395.013 77.1398C395.173 77.1971 395.366 77.2438 395.485 77.2729C395.604 77.302 395.645 77.3072 395.793 77.3459C396.193 77.4569 396.438 77.5312 396.358 77.5055C396.293 77.4797 396.179 77.4281 396.047 77.375" stroke="#B7897B" stroke-linecap="round"/>
</svg>
